<?xml version="1.0" standalone="no"?>
<!DOCTYPE svg PUBLIC "-//W3C//DTD SVG 20010904//EN"
 "http://www.w3.org/TR/2001/REC-SVG-20010904/DTD/svg10.dtd">
<svg version="1.0" xmlns="http://www.w3.org/2000/svg"
 width="929.000000pt" height="873.000000pt" viewBox="0 0 929.000000 873.000000"
 preserveAspectRatio="xMidYMid meet">

<g transform="translate(0.000000,873.000000) scale(0.100000,-0.100000)"
fill="#000000" stroke="none">
<path d="M0 4365 l0 -4365 4645 0 4645 0 0 4365 0 4365 -4645 0 -4645 0 0
-4365z m1578 3881 c89 -45 143 -127 166 -251 8 -47 10 -277 2 -410 -13 -219
-14 -255 -6 -255 9 0 14 13 26 70 4 19 9 40 11 45 1 6 12 54 23 107 25 118 75
242 126 308 21 28 41 50 44 50 11 0 47 -44 66 -80 14 -27 18 -57 18 -130 0
-136 -20 -248 -69 -384 -13 -39 -23 -71 -22 -73 3 -3 60 93 110 187 61 113 67
121 87 110 24 -13 50 -81 50 -130 0 -43 2 -45 29 -31 38 21 60 -27 57 -128 -1
-57 1 -61 21 -61 25 0 49 -31 57 -74 7 -40 -14 -144 -61 -305 -17 -58 -22 -86
-14 -94 16 -16 40 10 72 78 47 98 106 155 161 155 42 0 64 -44 83 -165 2 -11
4 -39 4 -63 1 -40 3 -43 24 -36 12 5 40 8 62 7 31 -1 45 -8 62 -30 37 -45 46
-96 40 -230 -5 -110 -4 -123 13 -138 14 -13 18 -29 16 -69 -2 -29 -6 -57 -9
-63 -4 -6 9 -26 28 -46 30 -31 35 -43 35 -84 0 -31 -7 -59 -19 -77 l-20 -30
30 -33 c35 -40 36 -60 7 -116 -15 -28 -23 -60 -23 -95 0 -48 -3 -56 -38 -89
-47 -44 -42 -50 60 -82 79 -24 118 -58 108 -95 -4 -12 -27 -40 -53 -63 -25
-23 -44 -44 -41 -46 2 -3 14 -10 27 -16 36 -19 29 -60 -18 -106 -30 -29 -37
-42 -29 -52 6 -7 9 -22 6 -33 -6 -22 12 -36 58 -44 38 -7 40 -11 25 -57 -28
-83 -91 -133 -225 -177 -87 -29 -88 -30 -64 -45 82 -54 146 -58 309 -22 47 10
150 69 217 123 23 18 47 31 53 27 13 -8 13 -61 -1 -87 -6 -11 -9 -22 -6 -24 7
-8 162 52 267 103 88 43 162 86 380 220 125 77 207 123 218 123 22 0 23 -41 3
-83 -31 -63 -91 -116 -235 -206 -72 -45 -127 -81 -124 -81 11 0 213 73 240 86
36 19 38 18 38 -12 0 -35 -33 -87 -78 -123 -42 -33 -229 -115 -300 -132 -84
-19 -212 -61 -212 -69 0 -4 19 -3 43 2 23 5 53 12 65 14 36 7 120 30 190 52
34 11 62 18 62 16 0 -3 9 0 20 6 37 20 42 1 13 -51 -30 -56 -74 -95 -143 -126
-39 -18 -137 -49 -165 -54 -5 0 -17 -5 -26 -10 -9 -4 -27 -10 -41 -13 -46 -8
-178 -47 -211 -62 l-32 -15 30 6 c17 2 55 7 85 10 30 3 62 8 70 10 8 2 53 7
100 10 47 4 88 9 92 11 15 10 7 -11 -19 -49 -15 -21 -45 -49 -67 -62 -53 -30
-164 -62 -241 -69 -33 -3 -80 -8 -105 -10 -25 -3 -91 -8 -148 -11 -81 -4 -110
-9 -131 -25 -16 -10 -64 -37 -108 -58 l-79 -38 18 -43 c25 -60 29 -88 17 -140
-11 -55 -83 -284 -146 -466 -65 -189 -72 -238 -38 -261 17 -11 26 -10 60 5 22
11 51 35 64 55 13 19 33 39 45 43 46 15 127 -7 156 -44 21 -27 28 -83 10 -83
-5 0 -10 5 -10 10 0 23 -39 49 -67 44 -48 -8 -52 -12 -55 -51 l-3 -38 -96 -1
c-115 -1 -117 -2 -241 -132 -46 -49 -96 -95 -109 -103 -14 -7 -49 -12 -81 -11
-56 2 -59 1 -78 -30 -11 -18 -20 -51 -20 -72 l0 -39 -21 19 c-18 16 -20 27
-16 73 8 76 63 131 147 146 45 8 66 21 123 74 70 65 75 80 75 203 l0 107 -30
10 c-27 9 -33 7 -75 -32 l-46 -42 -121 -2 c-66 -1 -128 -2 -137 -3 -17 -1 -48
-57 -68 -121 -6 -19 -27 -51 -46 -69 -30 -29 -42 -34 -91 -35 -31 -1 -76 5
-100 14 -51 18 -60 13 -93 -54 -11 -22 -21 -33 -22 -25 0 8 -2 29 -4 45 -3 39
7 58 50 91 34 25 51 30 120 36 40 3 178 140 225 222 19 33 75 105 126 159 51
55 94 111 97 125 3 15 6 90 6 167 2 135 1 142 -21 161 -34 31 -202 113 -287
141 -245 80 -363 8 -397 -239 -7 -52 -18 -74 -52 -109 -18 -18 -27 -39 -29
-70 -5 -76 -12 -252 -13 -302 l0 -48 -29 15 c-76 40 -155 179 -173 306 -9 65
-15 82 -34 95 -46 30 -75 71 -95 135 -26 83 -29 105 -34 215 -5 105 13 169 77
272 44 70 84 109 195 186 68 48 145 125 240 237 31 38 32 74 4 215 -60 297
-138 453 -313 626 -156 153 -224 249 -329 462 -317 645 -399 789 -526 930
l-64 72 31 28 c48 43 105 41 203 -6 79 -39 167 -145 266 -319 18 -32 37 -58
43 -58 10 0 6 304 -6 375 -3 17 -7 53 -10 80 -3 28 -8 68 -10 90 -3 22 -10 81
-16 130 -23 191 -27 218 -63 398 -14 64 -21 120 -16 122 21 14 80 6 124 -16
68 -34 123 -108 164 -221 18 -50 34 -97 35 -102 18 -84 52 -160 90 -195 l26
-24 1 24 c0 13 2 33 4 44 2 11 6 46 9 78 8 84 56 167 97 167 21 0 86 -122 94
-176 3 -22 8 -45 11 -53 3 -8 7 -40 11 -70 8 -79 8 -80 16 -87 4 -4 7 4 8 17
6 128 8 163 13 219 4 36 9 110 12 165 3 55 7 123 9 150 1 28 6 110 10 183 6
112 9 153 14 170 2 5 14 1 59 -22z m3072 -3382 c0 -237 -1 -243 -20 -241 -19
1 -20 8 -20 237 0 130 2 239 5 242 3 2 12 5 20 5 13 0 15 -34 15 -243z m359 8
c1 -125 -2 -232 -6 -237 -5 -6 -15 -11 -23 -10 -13 0 -15 34 -16 235 -2 233 1
255 32 243 9 -3 12 -60 13 -231z m258 221 c3 -7 -14 -17 -38 -24 -50 -16 -80
-57 -70 -97 6 -23 53 -57 102 -74 5 -2 6 -13 3 -25 -6 -21 -7 -21 -50 -6 -90
30 -130 117 -82 178 41 52 124 82 135 48z m129 -18 c29 -22 32 -28 22 -45 -11
-18 -13 -17 -45 11 -29 25 -56 35 -85 30 -5 0 -8 8 -8 20 0 19 4 20 41 15 23
-3 57 -17 75 -31z m182 -207 c-3 -222 -4 -243 -20 -246 -17 -3 -18 13 -18 236
0 239 1 248 33 251 4 1 6 -108 5 -241z m211 229 c84 -29 105 -150 36 -207 -14
-12 -13 -17 17 -47 29 -30 33 -40 31 -82 -5 -107 -35 -133 -164 -139 -98 -5
-122 0 -113 23 5 12 24 15 96 15 81 0 91 2 113 25 14 13 26 31 26 40 1 8 2 21
3 28 3 20 -22 65 -46 81 -16 12 -47 16 -111 16 -79 0 -88 2 -85 18 3 14 18 18
97 22 82 4 95 8 112 29 29 36 28 95 -2 126 -16 17 -36 21 -113 23 -94 4 -97 5
-87 40 3 8 162 -1 190 -11z m391 -8 c0 -11 -4 -18 -10 -14 -14 9 -81 -23 -113
-53 -30 -29 -57 -105 -57 -162 0 -110 79 -206 168 -203 6 1 12 -8 12 -19 0
-18 -4 -19 -37 -13 -114 21 -184 113 -186 242 -1 127 90 238 201 242 16 1 22
-5 22 -20z m105 2 c87 -39 142 -143 132 -249 -3 -32 -10 -69 -15 -83 -26 -66
-120 -138 -180 -139 -37 0 -23 33 17 41 46 10 82 38 110 88 46 83 28 226 -36
283 -19 17 -86 49 -100 48 -5 -1 -9 6 -11 14 -5 22 32 20 83 -3z m273 11 c19
-13 341 -466 336 -473 -2 -4 -15 -4 -28 -1 -24 7 -83 85 -279 370 -59 85 -73
112 -60 112 10 0 24 -4 31 -8z m342 -214 l0 -223 -20 25 c-18 23 -20 42 -20
223 0 190 1 197 20 197 19 0 20 -7 20 -222z m-350 121 c5 -9 8 -99 7 -199 -2
-164 -4 -183 -19 -186 -10 -1 -20 6 -23 17 -4 10 -5 109 -4 220 3 209 4 213
39 148z m-1193 -143 c79 -37 106 -113 64 -182 -33 -54 -141 -88 -141 -45 0 14
6 19 20 16 27 -5 82 35 93 68 16 49 2 75 -58 104 -36 18 -55 33 -55 45 0 24
15 23 77 -6z m-124 -210 c21 -4 34 -12 34 -22 0 -24 -77 -11 -126 22 -44 29
-47 34 -30 51 8 8 22 4 50 -17 21 -15 54 -31 72 -34z m-353 -17 c0 -20 -4 -20
-105 -17 -93 2 -105 5 -105 20 0 16 11 18 105 18 100 0 105 -1 105 -21z m-607
-235 c20 -7 37 -11 37 -8 0 11 84 -40 120 -72 88 -79 112 -155 114 -352 l1
-142 -180 2 -180 3 -2 159 c-2 170 -5 182 -55 191 -17 3 -31 -2 -44 -16 -18
-20 -19 -43 -19 -474 0 -430 1 -454 19 -474 14 -15 26 -19 45 -15 50 12 52 19
54 210 l2 179 180 3 180 2 -2 -157 c-3 -208 -28 -289 -109 -364 -83 -77 -176
-108 -311 -107 -251 3 -381 105 -411 323 -10 69 -9 739 1 798 27 166 117 265
284 312 59 17 225 16 276 -1z m1864 -17 c100 -39 180 -123 199 -208 2 -11 7
-29 11 -41 4 -13 8 -201 10 -418 3 -422 -2 -484 -46 -568 -34 -67 -93 -117
-174 -149 -62 -24 -88 -28 -187 -29 -171 -4 -273 29 -349 111 -42 46 -79 133
-89 210 -9 65 -9 723 -1 795 11 90 46 168 99 221 80 80 172 108 340 106 100
-2 125 -6 187 -30z m2303 13 c104 -28 174 -87 201 -167 10 -30 17 -88 18 -150
l2 -103 -161 2 -160 2 0 82 c0 95 -20 134 -69 134 -45 0 -58 -25 -60 -115 -2
-78 -1 -81 33 -121 19 -23 66 -60 103 -84 124 -79 146 -95 199 -143 107 -98
135 -179 130 -377 -4 -149 -5 -156 -35 -222 -56 -119 -181 -169 -406 -163
-178 4 -264 43 -320 146 -25 47 -28 62 -35 213 -4 88 -6 163 -3 166 3 3 79 6
169 7 l164 1 0 -128 c0 -139 8 -175 39 -185 57 -18 83 19 87 122 6 135 -22
178 -201 297 -222 149 -257 208 -258 426 0 131 9 174 50 241 38 63 121 114
204 125 24 3 46 8 48 10 9 8 220 -5 261 -16z m-3233 -26 c80 -17 115 -35 149
-77 46 -59 54 -98 51 -267 -2 -144 -4 -158 -26 -193 -27 -45 -85 -86 -124 -89
-30 -3 -37 -18 -8 -18 53 0 138 -65 160 -121 5 -15 10 -142 11 -285 1 -143 3
-274 5 -291 l3 -33 -169 0 -169 0 0 285 c0 311 -4 336 -56 355 -37 15 -71 12
-78 -5 -3 -9 -5 -154 -5 -323 l1 -307 -171 -3 -171 -2 0 695 0 696 266 -2
c177 -1 288 -6 331 -15z m1548 -19 c2 -16 6 -68 10 -115 4 -47 9 -105 11 -130
2 -25 6 -76 9 -115 3 -38 7 -86 10 -105 2 -19 7 -78 10 -130 4 -52 11 -124 16
-160 5 -36 9 -87 9 -114 0 -65 7 -55 15 19 3 33 8 81 11 107 8 67 13 124 19
188 2 31 7 71 9 90 5 39 18 162 21 200 1 14 5 48 8 75 15 123 20 182 19 203
l-2 22 192 -2 191 -3 2 -35 c2 -19 6 -62 10 -95 4 -33 9 -73 10 -90 1 -16 5
-52 9 -80 3 -27 8 -75 11 -105 6 -61 14 -142 20 -180 2 -14 7 -59 10 -100 4
-41 9 -93 11 -115 2 -22 6 -62 9 -89 6 -59 15 -73 16 -25 0 19 2 45 4 59 3 22
6 63 20 240 2 25 6 72 9 105 3 33 8 89 11 125 4 36 8 81 10 100 2 19 7 73 10
120 7 86 11 135 14 158 1 9 43 12 177 12 96 0 173 -3 171 -8 -3 -4 -8 -43 -12
-87 -4 -44 -9 -82 -10 -85 -2 -3 -6 -39 -9 -80 -4 -41 -9 -86 -11 -100 -3 -14
-7 -48 -10 -76 -3 -28 -8 -61 -10 -74 -2 -13 -7 -48 -10 -79 -3 -31 -7 -73
-10 -94 -3 -20 -7 -61 -10 -90 -3 -28 -9 -83 -15 -122 -5 -38 -12 -95 -15
-125 -3 -30 -7 -82 -10 -115 -4 -33 -10 -82 -15 -110 -5 -27 -11 -70 -14 -95
-3 -25 -5 -46 -5 -47 -1 -2 -102 -3 -226 -3 -173 0 -225 3 -226 13 -1 6 -3 21
-4 32 -2 11 -6 47 -10 80 -3 33 -10 89 -15 125 -5 36 -12 88 -15 115 -3 28 -7
64 -10 80 -3 17 -7 53 -10 80 -2 28 -8 75 -11 105 -10 82 -11 93 -13 120 -2
40 -19 10 -26 -45 -3 -27 -8 -61 -10 -75 -3 -14 -7 -45 -10 -70 -3 -25 -7 -63
-10 -85 -3 -22 -8 -65 -11 -95 -3 -30 -7 -57 -9 -60 -2 -3 -6 -37 -10 -75 -3
-39 -8 -77 -10 -85 -2 -8 -7 -35 -10 -60 -3 -25 -8 -54 -10 -65 -2 -11 -4 -23
-4 -28 -1 -4 -103 -6 -228 -5 -218 3 -226 4 -229 23 -10 100 -14 133 -18 151
-2 12 -7 52 -11 90 -3 38 -8 83 -10 99 -10 78 -16 135 -20 171 -2 21 -6 59
-10 84 -3 25 -7 61 -9 80 -7 67 -18 155 -22 180 -2 13 -6 58 -10 100 -3 41 -8
78 -10 81 -2 3 -6 39 -10 79 -3 40 -8 83 -10 94 -3 12 -7 51 -11 89 l-6 67
173 -2 173 -3 2 -30z m-4018 -931 c165 -24 288 -61 426 -130 271 -135 468
-318 622 -579 76 -129 135 -282 161 -415 3 -14 7 -32 9 -40 19 -70 27 -364 13
-465 -26 -171 -61 -282 -144 -450 -73 -148 -132 -231 -254 -359 -156 -164
-370 -299 -592 -375 -32 -11 -58 -17 -58 -15 0 3 -8 0 -18 -5 -10 -5 -38 -12
-62 -16 -25 -4 -47 -8 -50 -10 -28 -17 -312 -25 -436 -12 -135 14 -340 75
-469 140 -226 113 -455 322 -593 542 -44 70 -108 210 -136 297 -39 118 -43
137 -63 280 -10 68 -10 286 0 358 4 30 10 70 12 88 3 18 12 59 21 90 67 240
161 417 320 603 83 97 104 112 104 73 0 -19 -18 -48 -58 -93 -32 -36 -71 -84
-88 -106 -33 -44 -124 -189 -124 -199 0 -3 -13 -33 -29 -66 -16 -33 -41 -99
-56 -147 -35 -117 -33 -106 -52 -223 -16 -90 -7 -418 12 -471 2 -8 7 -25 9
-39 22 -111 52 -191 122 -330 130 -257 374 -495 634 -618 125 -60 169 -77 217
-86 10 -2 38 -9 63 -16 25 -7 59 -14 75 -17 17 -2 51 -8 77 -13 53 -11 292
-10 353 1 22 4 56 9 75 12 308 43 662 261 864 530 108 143 212 353 242 488 2
11 7 29 10 42 5 20 18 95 29 172 6 39 6 249 0 297 -12 108 -52 278 -76 320 -5
10 -9 23 -9 30 0 21 -94 202 -145 276 -120 180 -268 318 -475 444 -95 57 -296
132 -415 153 -22 4 -49 9 -60 11 -11 2 -37 5 -58 7 -45 5 -48 7 -41 34 4 14
12 20 24 18 10 -2 40 -7 67 -11z m-122 -153 c-3 -6 -11 -11 -17 -11 -6 0 -6 6
2 15 14 17 26 13 15 -4z m-244 2 c10 -110 10 -111 -16 -140 l-25 -28 4 85 c2
47 4 86 5 88 2 6 31 1 32 -5z m-145 -55 c-3 -13 -6 -57 -6 -99 l0 -76 -38 -11
c-52 -16 -128 -90 -141 -139 -26 -92 -4 -164 56 -190 33 -13 38 -13 62 5 20
15 27 30 31 68 4 36 10 50 22 52 11 2 19 -5 22 -20 2 -13 14 -75 26 -138 28
-146 83 -315 149 -455 28 -59 51 -112 51 -117 0 -5 -31 -56 -70 -112 -73 -107
-195 -244 -281 -316 -58 -49 -45 -56 -132 75 -139 210 -223 414 -278 681 -16
76 -22 149 -25 314 l-5 215 30 29 c26 25 36 28 108 30 101 2 146 28 195 113
33 55 37 59 109 85 40 15 85 27 98 27 19 1 22 -3 17 -21z m805 -30 c196 -80
423 -260 542 -429 56 -79 117 -179 117 -191 0 -5 -19 3 -42 17 -120 73 -376
188 -473 211 -5 2 -36 10 -68 18 -109 30 -199 46 -332 61 -56 7 -312 6 -359 0
l-39 -6 65 73 c36 40 82 86 102 103 36 29 41 30 138 30 93 0 101 2 119 24 10
13 19 32 19 43 0 19 2 18 21 -6 37 -47 103 -24 115 39 3 19 10 35 14 35 4 0
32 -10 61 -22z m-1475 -435 c1 -120 24 -324 48 -420 3 -13 8 -31 10 -41 17
-77 86 -271 133 -372 24 -53 120 -217 167 -285 23 -33 45 -66 49 -72 16 -25
-224 -162 -402 -229 -63 -24 -116 -44 -117 -44 -5 0 -84 142 -107 192 -15 32
-38 97 -51 145 -42 152 -48 200 -47 373 0 127 3 159 16 220 3 14 8 41 11 60
10 61 61 202 102 281 41 80 168 269 181 269 4 0 7 -35 7 -77z m1286 2 c299
-39 573 -141 820 -304 120 -79 117 -75 144 -230 19 -117 16 -411 -7 -479 l-14
-43 -79 61 c-285 218 -644 356 -1020 391 l-129 12 -48 104 c-71 151 -123 307
-154 460 l-6 32 48 4 c124 9 342 6 445 -8z m-130 -715 c185 -18 468 -86 468
-113 0 -22 -104 -220 -161 -307 -236 -360 -613 -645 -1011 -761 l-77 -23 -73
49 c-40 26 -100 69 -133 94 -67 51 -205 190 -205 206 0 5 46 28 101 50 217 86
420 219 602 395 130 125 206 215 289 340 37 56 59 80 73 80 11 0 68 -5 127
-10z m676 -196 c107 -56 261 -158 326 -216 l48 -43 -27 -60 c-89 -200 -162
-311 -290 -440 -110 -111 -200 -179 -325 -244 -90 -47 -241 -103 -305 -114
-17 -3 -55 -11 -85 -17 -59 -12 -278 -16 -348 -7 -122 17 -255 47 -263 60 -2
4 33 23 79 42 443 181 823 542 1035 983 27 56 53 102 58 102 5 0 49 -21 97
-46z"/>
<path d="M3406 4611 c-4 -5 3 -7 14 -4 23 6 26 13 6 13 -8 0 -17 -4 -20 -9z"/>
<path d="M2444 3758 c-85 -116 -143 -178 -262 -281 -70 -60 -92 -86 -90 -101
2 -12 8 -20 13 -20 6 1 30 4 55 7 68 9 111 24 137 49 35 33 104 30 142 -6 29
-28 29 -28 40 -7 10 17 53 143 56 161 0 3 11 42 24 88 l24 83 -23 50 c-38 80
-40 80 -116 -23z"/>
<path d="M5902 4179 c-12 -5 -27 -19 -31 -31 -5 -13 -9 -221 -8 -464 2 -342 5
-444 15 -456 19 -24 70 -28 95 -7 22 17 22 18 22 473 0 399 -2 457 -16 471
-19 20 -48 25 -77 14z"/>
<path d="M4952 4018 l3 -153 44 1 c35 1 49 7 68 28 20 24 23 38 23 111 0 46
-4 95 -10 110 -11 28 -62 55 -106 55 l-26 0 4 -152z"/>
</g>
</svg>
