<?xml version="1.0" standalone="no"?>
<!DOCTYPE svg PUBLIC "-//W3C//DTD SVG 20010904//EN"
 "http://www.w3.org/TR/2001/REC-SVG-20010904/DTD/svg10.dtd">
<svg version="1.0" xmlns="http://www.w3.org/2000/svg"
 width="1165.000000pt" height="971.000000pt" viewBox="0 0 1165.000000 971.000000"
 preserveAspectRatio="xMidYMid meet">

<g transform="translate(0.000000,971.000000) scale(0.100000,-0.100000)"
fill="#000000" stroke="none">
<path d="M2526 8972 c-3 -9 -8 -73 -11 -142 -3 -69 -8 -156 -10 -195 -11 -180
-15 -246 -22 -325 -3 -47 -7 -105 -8 -130 -3 -86 -5 -103 -12 -96 -8 8 -11 21
-19 106 -3 35 -7 67 -9 71 -2 3 -7 21 -10 39 -8 45 -51 133 -76 156 -26 23
-44 13 -81 -47 -29 -47 -37 -85 -47 -238 -1 -11 -6 -10 -22 5 -40 36 -59 73
-84 161 -62 213 -105 293 -188 348 -56 37 -99 47 -135 34 -17 -7 -22 -14 -17
-28 3 -11 8 -30 10 -43 13 -65 37 -185 40 -203 9 -43 24 -153 30 -210 4 -33 8
-67 10 -75 3 -8 7 -48 11 -89 3 -41 8 -84 10 -95 11 -56 26 -476 17 -476 -1 0
-18 30 -39 68 -61 108 -151 237 -194 276 -104 94 -233 115 -292 49 -17 -19
-16 -22 47 -91 117 -130 198 -269 411 -702 86 -173 167 -338 182 -367 34 -68
179 -251 236 -298 133 -108 279 -353 310 -520 22 -112 24 -124 30 -133 4 -6
14 -93 20 -163 2 -32 -175 -217 -281 -296 -119 -86 -158 -129 -206 -221 -48
-94 -60 -147 -54 -239 12 -183 49 -282 124 -333 22 -15 33 -31 34 -49 4 -89
23 -152 70 -232 39 -68 98 -129 124 -129 11 0 15 13 16 53 0 60 8 246 13 296
1 22 13 45 33 65 29 30 36 46 48 126 20 127 80 218 159 240 94 26 218 -3 400
-92 153 -76 146 -65 146 -235 0 -98 -4 -154 -14 -176 -7 -18 -49 -71 -93 -117
-44 -47 -101 -119 -127 -160 -56 -88 -136 -174 -186 -200 -19 -10 -54 -20 -76
-22 -65 -8 -122 -54 -126 -102 -2 -17 -16 -37 -39 -56 -57 -45 -180 -198 -238
-294 -60 -98 -118 -228 -149 -331 -21 -68 -26 -92 -38 -165 -3 -19 -7 -46 -9
-60 -7 -38 -7 -341 0 -375 3 -16 7 -39 10 -51 3 -12 7 -38 11 -59 19 -123 125
-365 219 -500 75 -108 264 -292 375 -365 193 -126 380 -196 605 -226 40 -5
320 -6 335 0 8 3 38 7 65 10 115 13 225 46 370 113 344 159 612 455 732 808
70 203 89 363 72 595 -7 98 -11 127 -23 168 -3 9 -7 28 -10 42 -10 53 -60 189
-103 280 -158 331 -461 596 -818 715 -78 27 -95 31 -145 41 -14 2 -30 6 -37 9
-16 5 -119 17 -165 19 -20 1 -40 5 -44 8 -4 4 5 40 19 80 26 77 108 326 111
343 2 6 8 28 14 51 20 71 19 107 -4 171 l-23 62 22 7 c42 13 112 48 155 77 37
25 56 30 120 33 130 6 219 13 327 28 110 16 210 59 246 107 49 65 51 62 -52
55 -51 -4 -96 -9 -99 -11 -3 -2 -40 -7 -81 -10 -40 -4 -80 -8 -86 -10 -7 -3
-13 -2 -13 1 0 9 85 36 220 69 28 7 175 53 205 64 68 26 118 57 144 90 34 43
64 101 57 108 -2 3 -28 -3 -56 -12 -28 -9 -56 -18 -63 -19 -7 -1 -39 -10 -72
-20 -73 -22 -279 -65 -268 -56 10 8 81 31 203 65 95 27 214 71 280 103 86 42
150 112 150 166 0 29 -3 31 -33 15 -21 -12 -256 -99 -266 -99 -2 0 58 39 135
86 185 114 253 181 259 256 5 58 -18 50 -245 -92 -164 -102 -276 -166 -370
-212 -103 -51 -255 -109 -264 -101 -2 3 -1 16 5 30 11 30 11 54 0 71 -6 11
-22 4 -67 -31 -160 -121 -343 -167 -463 -115 -80 33 -81 43 -9 62 152 43 239
112 249 201 4 27 0 31 -41 45 -38 13 -45 20 -45 42 -1 15 -4 30 -8 34 -4 4 11
27 33 50 25 27 40 53 40 69 0 14 -3 25 -7 25 -5 0 -17 7 -27 15 -18 14 -17 16
27 55 25 22 49 49 52 60 14 44 -35 82 -147 114 -32 9 -58 21 -58 26 0 5 19 28
41 50 38 38 41 44 36 82 -4 32 0 53 19 89 31 62 30 81 -5 121 l-29 33 19 35
c10 19 18 54 19 78 0 36 -6 49 -32 75 -18 18 -32 34 -31 37 1 3 4 29 8 58 5
43 3 59 -12 80 -15 23 -18 49 -18 173 0 142 -1 146 -28 187 -19 29 -35 42 -52
43 -14 1 -31 2 -37 3 -7 1 -25 -1 -40 -5 -27 -7 -28 -6 -29 29 -2 41 -4 62
-12 107 -16 94 -35 125 -74 125 -59 0 -114 -53 -168 -163 -45 -92 -89 -108
-66 -25 6 24 13 50 15 58 3 8 14 50 26 92 28 103 30 115 32 173 2 62 -15 94
-52 101 -28 6 -28 7 -28 79 0 97 -6 115 -41 115 -15 0 -31 -4 -37 -9 -5 -6 -9
12 -10 48 -1 31 -9 72 -18 89 -28 55 -47 42 -111 -75 -66 -121 -131 -229 -120
-198 51 135 60 164 71 230 3 17 10 48 16 70 6 22 12 82 14 133 4 105 -16 176
-61 221 l-25 25 -29 -34 c-68 -79 -112 -198 -166 -445 -10 -44 -23 -91 -31
-105 -11 -22 -12 -11 -8 80 2 58 6 116 9 130 10 47 8 395 -3 456 -12 72 -58
168 -99 206 -15 15 -49 36 -75 47 -43 18 -47 19 -52 3z m1065 -4514 c1 -7 -4
-33 -11 -58 -8 -25 -14 -47 -14 -50 -1 -5 -19 -63 -42 -138 -8 -23 -14 -49
-14 -56 0 -7 -9 -21 -20 -31 -20 -18 -21 -18 -43 3 -33 31 -107 30 -150 -2
-18 -13 -59 -30 -92 -37 -88 -19 -108 -17 -103 11 2 11 53 64 113 118 106 94
213 215 277 314 l31 48 33 -55 c18 -30 34 -60 35 -67z m-154 -462 c13 -13 12
-119 -2 -146 -7 -14 -32 -43 -55 -65 l-42 -40 4 125 c3 123 3 124 28 131 30 8
56 6 67 -5z m261 -1 c10 -10 -46 -66 -81 -80 -37 -15 -41 -15 -59 2 -11 10
-18 27 -16 42 4 45 15 51 86 45 37 -3 68 -7 70 -9z m-462 -56 c-3 -17 -6 -78
-6 -134 l0 -103 -29 -11 c-15 -7 -43 -28 -61 -46 -27 -28 -34 -44 -38 -87 -3
-45 -1 -56 17 -72 21 -19 21 -19 21 11 0 68 31 113 78 113 16 0 20 -10 26 -67
19 -186 86 -419 175 -609 28 -59 51 -111 51 -116 0 -5 -33 -58 -72 -116 -48
-70 -114 -149 -194 -229 -67 -68 -126 -123 -131 -123 -13 0 -101 129 -161 235
-59 106 -131 278 -162 388 -49 176 -61 266 -67 485 -5 198 -4 214 13 233 37
41 116 92 157 101 25 5 56 23 77 42 19 19 46 39 60 47 27 14 230 88 244 88 5
1 6 -13 2 -30z m627 2 c4 0 13 -12 19 -26 15 -34 28 -32 28 5 0 36 1 36 70 10
30 -12 64 -24 75 -27 38 -12 150 -75 225 -127 145 -99 353 -336 406 -461 l15
-36 -38 24 c-73 45 -239 125 -343 165 -141 53 -167 62 -268 83 -24 5 -46 11
-50 13 -4 2 -31 7 -61 11 -30 4 -63 9 -75 11 -34 7 -186 17 -256 17 -78 1
-239 -11 -250 -18 -4 -3 -10 5 -13 17 -7 27 24 68 131 170 88 84 106 91 227
86 l60 -3 5 39 c6 48 27 58 93 47z m-1294 -526 c0 -74 2 -138 5 -143 2 -4 7
-28 11 -52 10 -71 15 -102 26 -150 6 -25 12 -52 14 -60 8 -40 59 -199 75 -235
10 -22 30 -68 44 -102 14 -34 34 -77 44 -95 10 -18 31 -55 46 -83 24 -42 80
-129 134 -205 12 -16 9 -21 -30 -47 -148 -101 -468 -247 -490 -225 -14 15 -69
119 -111 212 -24 52 -54 150 -61 195 -4 22 -11 67 -17 100 -12 67 -15 283 -5
360 17 131 68 291 129 405 47 88 164 260 177 260 5 0 9 -60 9 -135z m1283 60
c300 -40 576 -142 821 -305 114 -77 113 -74 139 -195 19 -88 17 -456 -2 -513
l-15 -42 -80 60 c-294 222 -643 356 -1019 391 l-129 12 -47 101 c-70 147 -124
310 -155 463 l-6 32 48 4 c124 9 342 6 445 -8z m-7 -731 c157 -25 345 -78 345
-96 0 -20 -90 -195 -145 -283 -233 -370 -622 -668 -1027 -786 l-77 -23 -73 49
c-117 77 -188 135 -265 214 -68 70 -87 101 -63 101 21 0 241 101 324 148 253
147 497 378 659 625 l52 78 90 -6 c50 -3 131 -13 180 -21z m565 -187 c180 -95
364 -234 353 -265 -3 -9 -31 -71 -63 -137 -121 -257 -336 -477 -587 -604 -229
-115 -509 -159 -768 -121 -75 12 -213 45 -222 54 -2 2 18 12 44 22 26 11 97
43 158 73 397 195 712 513 917 929 58 118 47 114 168 49z"/>
<path d="M6194 5811 c-17 -10 -40 -31 -52 -45 -45 -59 -4 -153 77 -176 50 -14
57 -13 58 9 1 14 -11 23 -42 35 -54 21 -70 39 -67 79 3 40 23 61 72 76 28 8
38 16 34 26 -8 20 -43 19 -80 -4z"/>
<path d="M6290 5815 c0 -8 16 -18 37 -24 20 -6 48 -22 62 -35 25 -24 27 -25
38 -7 15 24 -7 46 -64 67 -50 17 -73 17 -73 -1z"/>
<path d="M6556 5815 c-14 -14 -16 -46 -15 -228 0 -117 3 -219 7 -227 9 -19 32
-24 32 -7 2 127 0 471 -3 474 -3 2 -12 -3 -21 -12z"/>
<path d="M6618 5823 c-10 -2 -18 -11 -18 -19 0 -11 19 -14 89 -14 82 0 90 -2
115 -26 28 -29 32 -56 16 -100 -18 -45 -38 -53 -132 -54 -81 0 -88 -2 -88 -20
0 -19 7 -20 91 -20 86 0 92 -1 119 -29 26 -25 29 -34 25 -77 -6 -71 -27 -83
-142 -84 -73 0 -93 -3 -93 -14 0 -20 15 -22 122 -16 90 5 100 7 125 33 24 23
28 36 30 89 2 58 0 64 -30 92 l-32 29 28 30 c20 22 27 39 27 71 0 90 -44 126
-156 131 -43 2 -87 1 -96 -2z"/>
<path d="M7123 5820 c-145 -34 -203 -259 -103 -400 23 -32 111 -80 148 -80 40
0 23 34 -21 41 -46 7 -99 55 -120 109 -31 79 -14 194 36 249 26 28 103 65 117
56 6 -3 10 3 10 14 0 23 -12 24 -67 11z"/>
<path d="M7212 5813 c2 -10 17 -20 37 -24 109 -22 167 -165 119 -295 -10 -28
-28 -60 -41 -72 -21 -20 -96 -56 -107 -53 -3 1 -6 -5 -8 -13 -5 -22 32 -20 83
3 107 48 155 177 119 323 -9 40 -72 108 -118 129 -53 24 -89 25 -84 2z"/>
<path d="M7535 5820 c-3 -5 24 -51 60 -102 37 -51 109 -154 162 -228 68 -97
102 -137 121 -142 14 -4 28 -5 30 -3 2 2 -63 97 -144 212 -82 114 -158 221
-169 237 -20 29 -50 42 -60 26z"/>
<path d="M7888 5823 c-16 -4 -18 -22 -18 -196 0 -175 2 -194 20 -217 l20 -25
0 223 c0 122 -1 221 -2 221 -2 -1 -11 -3 -20 -6z"/>
<path d="M5620 5580 c0 -233 1 -240 20 -240 19 0 20 7 20 240 0 233 -1 240
-20 240 -19 0 -20 -7 -20 -240z"/>
<path d="M5977 5583 c2 -196 5 -239 16 -241 8 -2 17 7 20 18 8 30 9 423 1 443
-3 9 -14 17 -23 17 -14 0 -16 -23 -14 -237z"/>
<path d="M7527 5562 c2 -153 6 -218 14 -221 24 -8 29 29 28 204 -1 169 -2 182
-22 207 l-22 27 2 -217z"/>
<path d="M6290 5594 c0 -18 8 -27 28 -34 79 -29 101 -58 86 -111 -11 -38 -48
-68 -86 -71 -20 -2 -28 -8 -28 -21 0 -17 5 -18 42 -12 56 10 88 32 104 72 36
86 -1 151 -107 188 -39 14 -39 14 -39 -11z"/>
<path d="M6121 5427 c-17 -17 -14 -22 28 -50 48 -32 128 -46 128 -23 0 9 -4
17 -9 17 -36 6 -73 21 -104 45 -23 17 -34 20 -43 11z"/>
<path d="M5680 5366 c0 -11 21 -15 93 -18 104 -4 117 -2 117 18 0 11 -22 14
-105 14 -84 0 -105 -3 -105 -14z"/>
<path d="M4995 5121 c-80 -23 -133 -52 -172 -93 -31 -32 -81 -121 -88 -156
-24 -128 -27 -191 -22 -507 3 -187 8 -358 12 -380 10 -65 62 -161 108 -200 81
-70 178 -96 327 -90 106 5 130 10 191 41 76 38 129 91 161 163 36 79 43 122
43 286 l0 130 -182 3 -181 2 0 -181 c0 -148 -3 -185 -15 -197 -22 -22 -63 -23
-82 -2 -15 16 -16 65 -16 477 1 456 1 458 22 476 14 11 30 15 43 11 46 -13 48
-23 48 -193 l0 -161 178 0 179 0 7 46 c16 108 -14 311 -57 380 -43 71 -135
133 -224 152 -73 15 -216 12 -280 -7z"/>
<path d="M6785 5121 c-33 -10 -72 -23 -87 -29 -40 -16 -107 -80 -129 -124 -44
-86 -49 -145 -49 -550 0 -211 2 -403 5 -428 9 -74 63 -169 122 -217 75 -60
140 -77 298 -77 119 -1 136 2 202 27 117 46 182 126 211 262 7 33 10 191 9
455 -3 392 -3 407 -25 465 -31 82 -58 120 -117 160 -101 69 -309 96 -440 56z
m208 -243 c16 -19 17 -56 17 -463 0 -407 -1 -445 -17 -464 -25 -30 -66 -35
-94 -12 l-24 19 -3 430 c-2 236 1 445 6 463 15 58 75 72 115 27z"/>
<path d="M9147 5129 c-68 -11 -152 -54 -188 -97 -56 -66 -71 -122 -70 -257 2
-143 7 -176 36 -235 32 -64 91 -119 209 -198 118 -78 171 -124 193 -166 14
-28 17 -64 14 -198 -1 -32 -32 -68 -59 -68 -10 0 -27 6 -38 14 -17 13 -20 31
-24 158 l-5 143 -164 0 -164 0 1 -146 c1 -123 4 -154 23 -203 46 -125 150
-180 344 -181 61 0 132 3 158 7 57 8 152 50 185 81 24 22 69 102 79 141 12 44
12 292 1 336 -32 126 -106 205 -308 331 -71 44 -117 85 -136 120 -17 35 -18
145 -1 179 18 35 60 38 92 6 23 -23 25 -33 25 -108 l0 -83 161 0 161 0 -4 115
c-5 125 -23 177 -76 228 -30 27 -108 65 -162 77 -48 11 -224 13 -283 4z"/>
<path d="M5620 4416 l0 -696 170 0 c155 0 170 2 170 18 1 9 1 153 0 319 -1
296 -1 301 20 308 34 11 78 -5 100 -35 19 -27 20 -43 20 -319 l0 -291 168 2
167 3 0 260 c0 143 -3 276 -6 295 -15 89 -80 154 -169 170 l-35 7 41 11 c59
17 104 51 128 97 18 35 21 60 23 192 2 134 0 158 -18 200 -56 131 -114 149
-507 152 l-272 2 0 -695z m430 459 c43 -22 50 -43 50 -145 0 -88 -1 -93 -30
-121 -24 -25 -37 -30 -67 -27 l-38 3 -2 153 -1 152 29 0 c17 0 43 -7 59 -15z"/>
<path d="M7425 5037 c3 -40 7 -82 9 -92 2 -11 7 -49 11 -85 4 -36 9 -72 10
-81 3 -15 15 -114 30 -259 10 -91 22 -192 30 -250 2 -19 7 -65 10 -102 3 -37
8 -78 11 -90 2 -13 7 -50 10 -83 4 -33 8 -71 9 -85 2 -14 6 -52 9 -85 4 -33 9
-70 11 -83 l5 -22 227 2 c256 3 227 -9 238 98 3 30 8 73 12 95 4 22 7 49 8 60
4 51 17 145 25 190 5 28 12 73 15 100 3 28 7 61 9 75 2 14 7 54 11 90 8 73 21
109 23 63 0 -16 6 -67 12 -114 7 -46 13 -97 15 -114 2 -16 6 -57 10 -90 11
-87 13 -103 20 -180 3 -38 8 -77 10 -85 3 -8 7 -40 10 -70 3 -30 7 -64 10 -75
2 -11 4 -26 4 -33 1 -10 50 -12 228 -10 218 3 226 4 228 23 2 11 5 49 9 85 3
36 8 76 10 90 6 36 17 118 22 170 2 25 7 61 10 80 2 19 7 55 9 80 3 25 7 61
10 80 5 37 12 102 20 185 6 68 17 156 21 180 2 11 6 47 10 80 3 33 10 96 16
140 15 114 17 126 20 160 l3 30 -172 3 c-135 2 -173 0 -174 -10 -1 -7 -2 -24
-4 -38 -1 -14 -6 -72 -9 -130 -4 -58 -11 -130 -15 -160 -5 -30 -9 -64 -8 -75
0 -11 -3 -56 -8 -100 -4 -44 -9 -96 -10 -115 -4 -52 -17 -201 -20 -230 -2 -14
-4 -41 -5 -60 l-2 -35 -8 35 c-4 19 -11 71 -15 115 -4 44 -9 94 -10 110 -2 17
-6 55 -9 85 -3 30 -8 71 -10 90 -3 19 -7 67 -11 105 -3 39 -8 84 -10 100 -13
101 -26 233 -29 285 l-2 25 -189 0 c-172 0 -188 -1 -191 -18 -1 -9 -5 -52 -8
-95 -4 -42 -9 -93 -12 -112 -5 -37 -11 -93 -19 -175 -7 -74 -15 -145 -20 -185
-3 -19 -7 -65 -10 -103 -3 -37 -7 -79 -9 -95 -2 -15 -7 -58 -11 -97 -7 -77
-14 -97 -16 -44 -1 19 -2 45 -3 59 -9 86 -17 176 -22 250 -3 47 -7 101 -10
120 -2 19 -6 69 -9 110 -4 41 -8 91 -10 110 -2 19 -7 76 -10 125 -4 50 -9 101
-10 115 -2 14 -4 28 -4 33 -1 4 -78 7 -172 7 l-170 0 6 -73z"/>
</g>
</svg>
